<?xml version="1.0" encoding="UTF-8" standalone="no"?>
<!-- Created with Inkscape (http://www.inkscape.org/) -->
<!DOCTYPE svg PUBLIC "-//W3C//DTD SVG 1.0//EN" "http://www.w3.org/TR/2001/REC-SVG-20010904/DTD/svg10.dtd">
<svg
   xmlns:svg="http://www.w3.org/2000/svg"
   xmlns="http://www.w3.org/2000/svg"
   version="1.0"
   width="800"
   height="800"
   id="svg2"
   xml:space="preserve"><defs
     id="defs5" /><g
     transform="matrix(1.25,0,0,-1.25,28.242187,924.57032)"
     id="g11"
     style="display:inline"><path
       d="M -16.995907,679.33823 L -17.159949,601.87894 L 37.727546,546.99145 L 46.323199,546.99145 L 29.886481,530.55473 L 29.886481,308.7738 L 46.487241,292.17304 L 37.727546,292.33708 L -17.159949,237.44958 L -17.159949,159.82625 L 37.563504,105.1028 L 115.18683,105.1028 L 170.07433,159.9903 L 169.91029,168.75 L 186.51105,152.14924 L 281.32568,152.14924 L 281.35848,195.09468 L 204.45694,195.09468 L 163.18469,236.36691 L 126.96484,200.14708 L 126.96484,177.70652 L 97.47061,148.21229 L 55.443771,148.04825 L 25.7855,177.70652 L 25.949542,219.73336 L 55.443771,249.22759 L 77.884334,249.22759 L 114.10418,285.44744 L 72.83193,326.71969 L 72.83193,403.62123 L 67.221794,403.58843 L 67.221794,324.45595 L 106.23028,285.44744 L 75.620592,254.83772 L 53.212842,254.80492 L 20.372199,221.96429 L 20.175364,175.50841 L 53.245654,142.43811 L 99.70154,142.63495 L 132.54218,175.4756 L 132.57497,197.88334 L 163.18469,228.49303 L 201.99634,189.68138 L 275.74835,189.48453 L 275.74835,157.72655 L 188.77479,157.75937 L 164.30015,182.23401 L 164.30015,162.41808 L 112.75905,110.87698 L 39.958476,110.90979 L -11.352959,162.22122 L -11.582625,235.21865 L 39.958476,286.75974 L 59.971254,286.5629 L 35.496617,311.03754 L 35.496617,527.9629 L 60.135297,552.60159 L 39.958476,552.56877 L -11.582625,604.10987 L -11.549814,676.91045 L 39.958476,728.41874 L 112.75905,728.45155 L 164.30015,676.91045 L 164.46419,656.93048 L 188.93884,681.40512 L 294.61285,681.37231 L 294.58005,649.64715 L 201.99634,649.64715 L 163.18469,610.83548 L 132.57497,641.44519 L 132.54218,663.85293 L 99.70154,696.69358 L 53.212842,696.52954 L 20.339407,663.65609 L 20.372199,617.36424 L 53.212842,584.52359 L 75.620592,584.4908 L 106.23028,553.88109 L 67.221794,514.87258 L 67.41863,435.54326 L 72.995973,435.54326 L 72.83193,512.60884 L 114.10418,553.88109 L 78.048376,589.93689 L 55.443771,590.10094 L 25.949542,619.59517 L 25.982355,661.42516 L 55.640626,691.08342 L 97.47061,691.11624 L 126.96484,661.62201 L 126.96484,638.85336 L 163.02065,602.79757 L 204.45694,644.23385 L 390.34609,644.23385 L 431.61834,602.9616 L 467.67414,639.0174 L 467.83819,661.62201 L 497.33242,691.11624 L 539.1624,691.08342 L 568.82069,661.42516 L 568.85349,619.59517 L 539.35926,590.10094 L 516.75465,589.93689 L 480.69885,553.88109 L 521.9711,512.60884 L 521.80705,435.54326 L 527.3844,435.54326 L 527.3844,515.06944 L 488.57275,553.88109 L 518.9856,584.29395 L 541.59018,584.52359 L 574.43083,617.36424 L 574.46363,663.65609 L 541.39334,696.72638 L 495.10149,696.69358 L 462.26084,663.85293 L 462.0312,641.24833 L 431.61834,610.83548 L 392.60983,649.84399 L 300.22298,649.64715 L 300.19018,681.37231 L 405.86419,681.40512 L 430.33884,656.93048 L 430.30602,677.10731 L 481.84712,728.6484 L 554.84456,728.41874 L 606.15599,677.10731 L 606.1888,604.30673 L 554.6477,552.76563 L 534.66773,552.60159 L 559.14237,528.12694 L 559.14237,311.20159 L 534.66773,286.72694 L 554.6477,286.5629 L 606.1888,235.0218 L 606.15599,162.22122 L 554.6477,110.71293 L 481.84712,110.68013 L 430.30602,162.22122 L 430.33884,182.39804 L 405.70015,157.75937 L 299.99333,157.75937 L 300.02614,189.48453 L 392.60983,189.48453 L 431.61834,228.49303 L 462.0312,198.08018 L 462.26084,175.4756 L 495.10149,142.63495 L 541.39334,142.60214 L 574.26679,175.4756 L 574.43083,221.96429 L 541.59018,254.80492 L 518.9856,255.03458 L 488.57275,285.44744 L 527.3844,324.25909 L 527.3844,403.78527 L 521.80705,403.78527 L 521.9711,326.71969 L 480.53482,285.2834 L 516.59062,249.22759 L 539.1624,249.42445 L 568.85349,219.73336 L 568.82069,177.90337 L 539.1624,148.24509 L 497.33242,148.21229 L 467.64133,177.90337 L 467.67414,200.31113 L 431.61834,236.36691 L 390.34609,195.09468 L 299.99333,195.09468 L 300.22298,227.01669 L 377.12453,227.01669 L 431.61834,281.5105 L 493.78917,219.33966 L 497.72612,223.27659 L 435.55528,285.44744 L 490.04909,339.94125 L 490.04909,499.38728 L 435.55528,553.88109 L 497.72612,616.05192 L 493.78917,619.98885 L 431.61834,557.81803 L 377.12453,612.31184 L 313.28051,612.31184 L 313.28051,606.73451 L 374.86079,606.7017 L 484.43895,497.12354 L 484.43895,342.20499 L 374.86079,232.62683 L 300.19018,232.62683 L 300.22298,264.35201 L 361.80329,264.3192 L 452.74658,355.26249 L 452.71377,403.78527 L 447.13644,403.78527 L 446.9068,357.69028 L 359.17866,269.96214 L 300.19018,269.96214 L 300.22298,301.6873 L 346.12113,301.6545 L 415.21444,370.74779 L 415.21444,468.58074 L 346.31799,537.47719 L 300.02614,537.44437 L 300.19018,569.36639 L 359.3755,569.16953 L 446.9068,481.63825 L 447.13644,435.54326 L 452.71377,435.54326 L 452.54973,483.86918 L 361.60643,574.81248 L 232.99974,575.00933 L 142.05645,484.06604 L 142.08926,422.48573 L 110.36408,422.45293 L 110.36408,497.12354 L 219.94224,606.7017 L 281.52252,606.73451 L 281.52252,612.31184 L 217.6785,612.31184 L 163.18469,557.81803 L 101.01386,619.98885 L 97.07692,616.05192 L 159.24775,553.88109 L 104.75394,499.38728 L 104.55709,339.74439 L 149.73347,294.56801 L 153.86726,298.7018 L 110.36408,342.20499 L 110.36408,416.8756 L 142.08926,416.84278 L 142.05645,355.26249 L 232.99974,264.3192 L 281.52252,264.35201 L 281.52252,269.92933 L 235.23067,269.96214 L 147.69939,357.49342 L 147.69939,481.44141 L 235.42753,569.16953 L 294.61285,569.36639 L 294.41601,537.47719 L 248.48504,537.47719 L 179.39175,468.38388 L 179.58859,370.74779 L 248.48504,301.85134 L 281.52252,301.6873 L 281.32568,307.46148 L 250.91283,307.29746 L 185.03471,373.17558 L 185.03471,416.8756 L 216.92391,416.67876 L 216.92391,386.42992 L 264.16719,339.18666 L 281.35848,339.18666 L 281.32568,344.79679 L 266.43093,344.79679 L 222.53404,388.69366 L 222.53404,450.63485 L 266.43093,494.53174 L 281.32568,494.53174 L 281.35848,500.14187 L 264.16719,500.14187 L 216.92391,452.89859 L 216.95672,422.28889 L 185.03471,422.45293 L 185.03471,466.15295 L 250.74879,531.86703 L 343.69337,531.83423 L 409.57148,465.95612 L 409.60428,422.28889 L 377.68227,422.45293 L 377.87912,452.89859 L 330.63584,500.14187 L 313.2477,499.94502 L 313.28051,494.33488 L 328.37212,494.53174 L 372.26899,450.63485 L 372.26899,388.69366 L 331.94815,348.37285 L 331.94815,340.49898 L 377.87912,386.42992 L 377.68227,416.8756 L 409.57148,416.67876 L 409.60428,373.01154 L 343.8902,307.29746 L 300.19018,307.29746 L 299.99333,363.46445 L 274.272,363.46445 L 241.2017,396.53475 L 241.2017,442.79378 L 274.07515,475.66724 L 320.53103,475.86407 L 353.60132,442.79378 L 353.40449,396.3379 L 320.53103,363.46445 L 313.2477,363.66129 L 313.2477,320.35497 L 338.47692,320.51901 L 396.54677,378.58885 L 396.51396,403.62123 L 390.93663,403.62123 L 390.93663,380.8526 L 336.21317,326.12915 L 318.85783,325.9651 L 318.85783,358.05116 L 322.79477,357.85431 L 359.01462,394.07415 L 359.01462,445.25438 L 322.99163,481.27737 L 300.22298,481.27737 L 299.99333,513.19938 L 336.21317,513.19938 L 390.93663,458.47593 L 390.73978,435.51045 L 396.34994,435.54326 L 396.54677,460.73968 L 338.47692,518.80952 L 256.3261,518.80952 L 198.25626,460.73968 L 198.09222,435.51045 L 203.70235,435.54326 L 203.8664,458.47593 L 258.58985,513.19938 L 294.41601,513.19938 L 294.58005,481.27737 L 271.8114,481.27737 L 235.59157,445.05752 L 235.62437,393.91011 L 271.64736,357.88712 L 294.41601,357.88712 L 294.41601,326.12915 L 258.58985,326.12915 L 203.8664,380.8526 L 203.8664,403.62123 L 198.28907,403.62123 L 198.25626,378.58885 L 256.3261,320.51901 L 294.41601,320.5518 L 294.61285,288.59698 L 243.07174,288.62979 L 166.36704,365.33449 L 166.36704,473.99402 L 243.07174,550.69874 L 281.35848,550.5347 L 281.35848,556.11202 L 240.84081,556.34169 L 160.72409,476.22497 L 160.72409,363.10356 L 240.84081,282.98684 L 294.61285,283.01965 L 294.61285,251.26168 L 227.58644,251.09764 L 128.83489,349.8492 L 129.03174,403.78527 L 123.4216,403.81808 L 123.3888,347.42143 L 225.15868,245.65153 L 294.61285,245.68435 L 294.61285,213.92637 L 212.10115,213.95919 L 163.18469,262.87565 L 108.2972,207.98815 L 108.2972,185.54758 L 89.629526,166.87994 L 63.120814,166.87994 L 44.61719,185.38357 L 44.61719,211.89227 L 63.284855,230.55995 L 85.725399,230.55995 L 140.6129,285.44744 L 91.696432,334.3639 L 91.499578,504.76777 L 140.6129,553.88109 L 85.725399,608.76858 L 63.284855,608.76858 L 44.61719,627.43626 L 44.650001,653.58409 L 63.317649,672.25173 L 89.629526,672.44859 L 108.2972,653.78093 L 108.2972,631.34038 L 163.18469,576.45288 L 212.10115,625.36934 L 294.61285,625.40216 L 294.61285,593.64418 L 225.35551,593.48015 L 123.4216,491.54622 L 123.4216,435.51045 L 129.03174,435.54326 L 129.03174,489.28248 L 227.58644,587.8372 L 367.01973,588.03404 L 465.7713,489.28248 L 465.8041,422.45293 L 434.04613,422.45293 L 434.07894,476.22497 L 353.96222,556.34169 L 313.2477,556.30888 L 313.28051,550.69874 L 351.53443,550.50189 L 428.23914,473.79718 L 428.23914,365.53135 L 351.53443,288.82664 L 313.28051,288.62979 L 313.2477,283.01965 L 353.96222,282.98684 L 434.07894,363.10356 L 434.04613,416.8756 L 465.8041,416.8756 L 465.57445,349.8492 L 367.01973,251.29448 L 313.28051,251.29448 L 313.2477,245.68435 L 369.28347,245.68435 L 471.2174,347.61826 L 471.2174,491.71026 L 369.44751,593.48015 L 300.19018,593.64418 L 300.19018,625.40216 L 382.70188,625.36934 L 431.61834,576.45288 L 486.50583,631.34038 L 486.50583,653.78093 L 505.17351,672.44859 L 531.48538,672.25173 L 549.98898,653.74813 L 550.18584,627.43626 L 531.51818,608.76858 L 509.07763,608.76858 L 454.19013,553.88109 L 503.10659,504.96461 L 503.10659,334.3639 L 454.19013,285.44744 L 509.07763,230.55995 L 531.51818,230.55995 L 550.18584,211.89227 L 549.98898,185.5804 L 531.32134,166.91275 L 505.17351,166.87994 L 486.50583,185.54758 L 486.50583,207.98815 L 431.61834,262.87565 L 382.50502,213.76233 L 313.28051,213.95919 L 313.2477,208.34903 L 384.96562,208.34903 L 431.61834,255.00177 L 480.53482,206.0853 L 480.92852,183.31666 L 502.74572,161.49945 L 533.74912,161.46664 L 555.59912,183.31666 L 555.56633,214.32006 L 533.74912,236.13726 L 510.98048,236.53096 L 462.06401,285.44744 L 508.71673,332.10016 L 508.71673,416.8756 L 540.47472,416.8756 L 540.63877,318.87861 L 507.04353,285.2834 L 524.43169,267.89524 L 546.80663,267.89524 L 587.3243,227.37757 L 587.48834,170.06229 L 547.00347,129.57743 L 489.49135,129.54463 L 448.97369,170.06229 L 449.0065,192.47004 L 431.61834,209.8582 L 398.18717,176.42701 L 313.08365,176.42701 L 313.05084,170.81688 L 400.45091,170.81688 L 431.61834,201.98433 L 443.36355,190.23911 L 443.39634,167.83136 L 487.26042,123.9673 L 549.23442,123.93449 L 593.13129,167.83136 L 593.09848,229.80536 L 549.23442,273.66942 L 526.82667,273.70222 L 515.08145,285.44744 L 546.2489,316.61487 L 546.2489,522.71364 L 515.08145,553.88109 L 526.82667,565.6263 L 549.23442,565.65909 L 593.09848,609.52317 L 593.13129,671.49717 L 549.23442,715.39404 L 487.26042,715.36123 L 443.39634,671.49717 L 443.36355,649.08942 L 431.61834,637.3442 L 400.45091,668.51165 L 313.2477,668.31479 L 313.28051,662.70466 L 398.18717,662.90152 L 431.78238,629.30628 L 449.17053,646.69444 L 448.97369,669.26622 L 489.49135,709.7839 L 547.00347,709.75109 L 587.48834,669.26622 L 587.52115,611.7541 L 547.00347,571.23644 L 524.43169,571.43328 L 507.04353,554.04513 L 540.63877,520.4499 L 540.47472,422.45293 L 508.71673,422.45293 L 508.71673,507.22835 L 462.06401,553.88109 L 511.34137,603.15845 L 533.74912,603.19127 L 555.56633,625.00847 L 555.59912,656.01187 L 533.74912,677.86187 L 502.74572,677.82908 L 480.92852,656.01187 L 480.8957,633.60412 L 431.61834,584.32676 L 384.96562,630.97948 L 209.83743,630.97948 L 163.18469,584.32676 L 113.90733,633.60412 L 113.87451,656.01187 L 92.05731,677.82908 L 61.053907,677.86187 L 39.203908,656.01187 L 39.236701,625.00847 L 61.053907,603.19127 L 83.461658,603.15845 L 132.73902,553.88109 L 86.086296,507.22835 L 86.086296,422.45293 L 54.164264,422.28889 L 54.164264,520.4499 L 87.595451,553.88109 L 70.207292,571.26925 L 47.799561,571.23644 L 7.281879,611.7541 L 7.3146911,669.26622 L 47.799561,709.75109 L 105.11482,709.58705 L 145.6325,669.06938 L 145.6325,646.69444 L 163.02065,629.30628 L 196.61586,662.90152 L 281.52252,662.70466 L 281.55533,668.31479 L 194.35214,668.51165 L 163.18469,637.3442 L 151.43947,649.08942 L 151.40668,671.49717 L 107.54261,715.36123 L 45.568612,715.39404 L 1.671743,671.49717 L 1.7045552,609.52317 L 45.568612,565.65909 L 67.976362,565.6263 L 79.721574,553.88109 L 48.554129,522.71364 L 48.554129,316.61487 L 79.721574,285.44744 L 67.779527,273.50539 L 45.371776,273.47258 L 1.5077008,229.6085 L 1.5077008,167.66732 L 45.404588,123.77045 L 107.34577,123.77045 L 151.20983,167.63453 L 151.24264,190.04227 L 163.18469,201.98433 L 194.35214,170.81688 L 262.65802,170.81688 L 262.69083,176.42701 L 196.61586,176.42701 L 163.02065,210.02225 L 145.6325,192.63409 L 145.6325,169.86546 L 105.11482,129.34779 L 47.799561,129.57743 L 7.3146911,170.06229 L 7.0850432,227.37757 L 47.602706,267.89524 L 70.371335,267.89524 L 87.759493,285.2834 L 54.164264,318.87861 L 54.131471,416.67876 L 86.086296,416.8756 L 85.889442,331.90332 L 132.54218,285.25058 L 83.461658,236.17008 L 61.053907,236.13726 L 39.039866,214.1232 L 39.039866,183.15261 L 60.889884,161.30261 L 91.860475,161.30261 L 113.87451,183.31666 L 113.90733,205.72441 L 162.98783,254.80492 L 209.64057,208.15219 L 294.61285,208.34903 L 294.3832,152.14924 L 408.29198,152.14924 L 424.7287,168.58595 L 424.7287,159.9903 L 479.41936,105.29964 L 557.07548,105.26685 L 611.79893,159.9903 L 611.76612,237.64642 L 557.07548,292.33708 L 548.31578,292.17304 L 564.91654,308.7738 L 564.91654,530.55473 L 548.31578,547.15549 L 557.07548,546.99145 L 611.96298,601.87894 L 611.79893,679.33823 L 557.07548,734.06168 L 479.61619,734.22573 L 424.7287,679.33823 L 424.89274,670.57853 L 408.29198,687.17929 L 186.51105,687.17929 L 169.91029,670.57853 L 170.07433,679.33823 L 115.18683,734.22573 L 37.727546,734.06168 L -16.995907,679.33823 z M 96.912878,223.11256 L 100.84981,219.17563 L 162.98783,281.31364 L 217.48164,226.81984 L 281.52252,227.01669 L 281.52252,232.59402 L 219.94224,232.62683 L 163.18469,289.38438 L 96.912878,223.11256 z"
       id="path15"
       style="fill:#000000;fill-opacity:1;stroke:#000000;stroke-width:2.96942592;stroke-linecap:butt;stroke-linejoin:miter;stroke-miterlimit:10;stroke-dasharray:none;stroke-opacity:1" /></g></svg>